<?xml version="1.0" encoding="utf-8"?>
<!-- Generator: Adobe Illustrator 16.0.0, SVG Export Plug-In . SVG Version: 6.00 Build 0)  -->
<!DOCTYPE svg PUBLIC "-//W3C//DTD SVG 1.1//EN" "http://www.w3.org/Graphics/SVG/1.1/DTD/svg11.dtd">
<svg version="1.1" id="Layer_1" xmlns="http://www.w3.org/2000/svg" xmlns:xlink="http://www.w3.org/1999/xlink" x="0px" y="0px"
	 width="38px" height="55.677px" viewBox="0 0 38 55.677" enable-background="new 0 0 38 55.677" xml:space="preserve">
<g>
	<path fill="#939598" d="M20.75,16.355c0,0.632,0.512,1.144,1.144,1.144h4.311c0.632,0,1.144-0.511,1.144-1.144
		c0-0.631-0.512-1.144-1.144-1.144h-4.311C21.262,15.211,20.75,15.724,20.75,16.355z"/>
	<path fill="#939598" d="M14.995,10.601c0.631,0,1.144-0.511,1.144-1.144V5.147c0-0.632-0.513-1.144-1.144-1.144
		c-0.631,0-1.144,0.511-1.144,1.144v4.311C13.852,10.09,14.364,10.601,14.995,10.601z"/>
	<path fill="#939598" d="M9.241,16.355c0-0.631-0.512-1.144-1.144-1.144H3.786c-0.632,0-1.144,0.513-1.144,1.144
		c0,0.632,0.512,1.144,1.144,1.144h4.311C8.729,17.499,9.241,16.987,9.241,16.355z"/>
	<path fill="#939598" d="M19.873,12.622c0.292,0,0.585-0.112,0.808-0.335l2.884-2.882c0.447-0.447,0.447-1.17,0-1.617
		s-1.17-0.447-1.617,0l-2.883,2.882c-0.447,0.446-0.447,1.17,0,1.617C19.287,12.51,19.58,12.622,19.873,12.622z"/>
	<path fill="#939598" d="M9.31,12.287c0.224,0.223,0.516,0.335,0.809,0.335c0.293,0,0.585-0.112,0.809-0.335
		c0.447-0.447,0.447-1.17,0-1.617L8.043,7.787c-0.447-0.447-1.17-0.447-1.617,0s-0.447,1.17,0,1.617L9.31,12.287z"/>
	<path fill="#939598" d="M33.873,26.977c-0.449-2.206-1.548-3.392-3.268-3.525c-0.625-0.05-1.184,0.046-1.668,0.196
		c-0.421-1.599-1.865-2.786-3.594-2.786c-0.804,0-1.544,0.261-2.154,0.695c-0.678-0.939-1.774-1.557-3.019-1.557
		c-0.511,0-0.999,0.104-1.443,0.291v-3.935c0-2.056-1.674-3.73-3.731-3.73c-2.056,0-3.73,1.674-3.73,3.73v9.196l-2.788,0.755
		c-2.194,0.595-3.751,2.599-3.787,4.874c-0.029,2.008,0.009,3.552,0.114,4.592c0.412,4.078,2.774,7.262,4.499,9.586
		c1.008,1.361,1.962,2.646,1.962,3.376h2.287c0-1.485-1.064-2.922-2.413-4.74c-1.653-2.227-3.71-5.001-4.059-8.453
		c-0.096-0.937-0.132-2.434-0.103-4.327c0.02-1.26,0.882-2.37,2.098-2.699l2.189-0.593v7.017h2.287V16.355
		c0-0.795,0.647-1.443,1.443-1.443c0.796,0,1.444,0.647,1.444,1.443v7.374v0.862v4.311h2.287v-4.311v-0.862
		c0-0.795,0.646-1.443,1.443-1.443c0.795,0,1.443,0.648,1.443,1.443v0.862v4.311h2.287v-4.311c0-0.795,0.648-1.443,1.443-1.443
		c0.795,0,1.443,0.647,1.443,1.443v5.173h2.287v-3.708c0.316-0.175,0.8-0.37,1.355-0.325c0.326,0.026,0.872,0.068,1.205,1.702
		c1.575,7.722-0.456,14.551-1.547,18.221c-0.43,1.442-0.714,2.397-0.714,3.08h2.288c0-0.35,0.314-1.407,0.619-2.429
		C33.426,42.444,35.563,35.259,33.873,26.977z"/>
</g>
</svg>
