<?xml version="1.0" encoding="utf-8"?>
<!-- Generator: Adobe Illustrator 16.0.0, SVG Export Plug-In . SVG Version: 6.00 Build 0)  -->
<!DOCTYPE svg PUBLIC "-//W3C//DTD SVG 1.1//EN" "http://www.w3.org/Graphics/SVG/1.1/DTD/svg11.dtd">
<svg version="1.1" id="Layer_1" xmlns="http://www.w3.org/2000/svg" xmlns:xlink="http://www.w3.org/1999/xlink" x="0px" y="0px"
	 width="60.166px" height="55.677px" viewBox="0 0 60.166 55.677" enable-background="new 0 0 60.166 55.677" xml:space="preserve">
<g>
	<path fill="#939598" d="M58.243,41.491l-4.951-9.615c-0.01-0.019-0.023-0.034-0.034-0.053c-0.024-0.044-0.053-0.085-0.081-0.127
		c-0.034-0.049-0.068-0.097-0.106-0.142c-0.031-0.037-0.064-0.071-0.098-0.104c-0.042-0.042-0.086-0.083-0.132-0.12
		c-0.038-0.031-0.077-0.059-0.118-0.087c-0.049-0.033-0.1-0.063-0.152-0.091c-0.043-0.023-0.086-0.045-0.131-0.065
		c-0.059-0.025-0.119-0.045-0.18-0.064c-0.031-0.009-0.059-0.024-0.091-0.032c-0.014-0.003-0.027-0.003-0.042-0.006
		c-0.068-0.015-0.138-0.022-0.208-0.029c-0.04-0.003-0.08-0.011-0.119-0.012c-0.074-0.002-0.148,0.006-0.222,0.013
		c-0.035,0.004-0.07,0.002-0.104,0.008c-0.09,0.015-0.18,0.041-0.269,0.071c-0.015,0.005-0.031,0.007-0.045,0.012
		c-0.002,0-0.004,0.001-0.006,0.001l-9.74,3.637c-0.893,0.333-1.346,1.327-1.013,2.22c0.333,0.892,1.326,1.345,2.22,1.013
		l6.361-2.375c-3.179,7.415-10.379,12.351-18.521,12.351c-9.208,0-17.259-6.359-19.578-15.463c-0.235-0.923-1.171-1.48-2.097-1.246
		c-0.923,0.235-1.481,1.174-1.246,2.097c2.708,10.635,12.133,18.062,22.92,18.062c9.484,0,17.87-5.703,21.619-14.282l3.094,6.009
		c0.306,0.595,0.91,0.936,1.535,0.936c0.266,0,0.536-0.062,0.788-0.191C58.346,43.378,58.679,42.337,58.243,41.491z"/>
	<path fill="#939598" d="M7.944,21.33c0.063,0.126,0.142,0.244,0.235,0.352c0.025,0.03,0.054,0.055,0.082,0.083
		c0.075,0.076,0.157,0.145,0.246,0.207c0.036,0.025,0.069,0.05,0.106,0.072c0.115,0.067,0.237,0.126,0.37,0.167
		c0.001,0,0.003,0,0.005,0c0.159,0.048,0.325,0.076,0.495,0.076c0.152,0,0.307-0.02,0.459-0.062l9.83-2.714
		c0.918-0.253,1.458-1.203,1.204-2.122c-0.253-0.918-1.206-1.457-2.122-1.204l-6.521,1.8c3.367-6.986,10.303-11.49,18.129-11.49
		c8.907,0,16.67,5.84,19.319,14.533c0.278,0.912,1.243,1.427,2.152,1.147c0.912-0.277,1.425-1.241,1.147-2.152
		C49.988,9.867,40.898,3.044,30.462,3.044c-9.088,0-17.145,5.171-21.12,13.209l-2.825-5.931c-0.41-0.86-1.439-1.225-2.299-0.815
		c-0.86,0.41-1.225,1.439-0.815,2.299l4.523,9.496C7.931,21.312,7.939,21.319,7.944,21.33z"/>
	<path fill="#939598" d="M33.301,34.059c0.298,0.405,0.687,0.721,1.167,0.95c0.481,0.229,1.072,0.344,1.774,0.344
		c0.671,0,1.251-0.111,1.74-0.332c0.488-0.221,0.889-0.53,1.202-0.927s0.545-0.862,0.698-1.396c0.152-0.534,0.229-1.114,0.229-1.74
		c0-0.625-0.061-1.213-0.183-1.763c-0.122-0.55-0.332-1.026-0.629-1.431c-0.298-0.404-0.684-0.725-1.156-0.961
		c-0.473-0.236-1.069-0.355-1.786-0.355c-0.672,0-1.252,0.115-1.74,0.344c-0.489,0.229-0.893,0.542-1.213,0.938
		s-0.557,0.862-0.709,1.396c-0.153,0.535-0.229,1.114-0.229,1.74s0.064,1.213,0.194,1.763
		C32.789,33.178,33.003,33.655,33.301,34.059z M34.835,30.019c0.022-0.321,0.087-0.618,0.194-0.893
		c0.106-0.275,0.263-0.503,0.469-0.687c0.206-0.183,0.492-0.274,0.859-0.274c0.335,0,0.599,0.103,0.79,0.309s0.332,0.45,0.424,0.732
		c0.091,0.283,0.148,0.58,0.171,0.893s0.035,0.583,0.035,0.812c0,0.245-0.012,0.523-0.035,0.836s-0.084,0.61-0.183,0.893
		c-0.099,0.283-0.252,0.523-0.458,0.721c-0.206,0.199-0.484,0.298-0.835,0.298c-0.366,0-0.649-0.099-0.847-0.298
		c-0.198-0.198-0.343-0.438-0.435-0.721c-0.091-0.282-0.145-0.583-0.16-0.904c-0.015-0.32-0.023-0.603-0.023-0.847
		C34.8,30.629,34.812,30.339,34.835,30.019z"/>
	<path fill="#939598" d="M28.069,25.062c0.152-0.527,0.229-1.103,0.229-1.729c0-0.625-0.061-1.221-0.183-1.786
		c-0.123-0.564-0.332-1.057-0.629-1.477c-0.298-0.419-0.684-0.751-1.156-0.996c-0.474-0.244-1.069-0.366-1.786-0.366
		c-0.671,0-1.251,0.119-1.74,0.355c-0.489,0.237-0.893,0.561-1.213,0.973s-0.557,0.893-0.71,1.442
		c-0.152,0.549-0.229,1.137-0.229,1.763c0,0.626,0.064,1.21,0.194,1.751c0.129,0.542,0.343,1.007,0.641,1.396
		s0.687,0.695,1.167,0.916c0.481,0.222,1.072,0.332,1.774,0.332c0.671,0,1.251-0.106,1.74-0.32c0.488-0.213,0.889-0.511,1.202-0.893
		C27.684,26.042,27.917,25.588,28.069,25.062z M25.929,24.123c-0.023,0.298-0.084,0.58-0.183,0.847
		c-0.1,0.267-0.252,0.492-0.458,0.675s-0.484,0.275-0.835,0.275c-0.366,0-0.649-0.092-0.847-0.275
		c-0.199-0.183-0.343-0.408-0.435-0.675c-0.091-0.267-0.145-0.553-0.16-0.858s-0.023-0.58-0.023-0.824
		c0-0.259,0.012-0.557,0.034-0.893c0.023-0.335,0.088-0.648,0.195-0.938c0.106-0.29,0.263-0.534,0.469-0.733
		c0.206-0.198,0.492-0.297,0.858-0.297c0.336,0,0.599,0.107,0.79,0.32c0.191,0.214,0.332,0.473,0.424,0.778
		c0.091,0.306,0.148,0.622,0.171,0.95c0.023,0.329,0.035,0.607,0.035,0.836C25.963,23.555,25.952,23.826,25.929,24.123z"/>
	<polygon fill="#939598" points="36.174,18.525 34.228,18.525 24.75,35.536 26.742,35.536 	"/>
</g>
</svg>
