<?xml version="1.0" encoding="utf-8"?>
<!-- Generator: Adobe Illustrator 16.0.0, SVG Export Plug-In . SVG Version: 6.00 Build 0)  -->
<!DOCTYPE svg PUBLIC "-//W3C//DTD SVG 1.1//EN" "http://www.w3.org/Graphics/SVG/1.1/DTD/svg11.dtd">
<svg version="1.1" id="Layer_1" xmlns="http://www.w3.org/2000/svg" xmlns:xlink="http://www.w3.org/1999/xlink" x="0px" y="0px"
	 width="112.564px" height="55.677px" viewBox="0 0 112.564 55.677" enable-background="new 0 0 112.564 55.677"
	 xml:space="preserve">
<g>
	<path fill="#939598" d="M27.953,33.469c0,2.203,9.963,3.352,15.304,3.352c4.802,0,8.572-0.625,10.391-0.998
		c4.911-1.006,4.911-1.881,4.911-2.354c0-2.156-1.724-10.307-9.895-12.82c1.579-2.107,2.543-4.977,2.543-7.68
		c0-4.868-3.199-8.142-7.962-8.142s-7.962,3.273-7.962,8.142c0,2.709,0.965,5.58,2.545,7.684
		C29.672,23.176,27.953,31.316,27.953,33.469z M56.839,33.154c-1.258,0.666-6.71,1.977-13.583,1.977
		c-6.873,0-12.326-1.311-13.584-1.977c0.194-1.643,1.531-9.16,9.433-11.105c1.191,1.062,2.597,1.729,4.14,1.729
		c1.544,0,2.951-0.666,4.143-1.73C55.306,23.984,56.645,31.512,56.839,33.154z M36.972,12.969c0-3.918,2.462-6.452,6.272-6.452
		s6.271,2.534,6.271,6.452c0,4.131-2.798,9.117-6.271,9.117C39.77,22.086,36.972,17.1,36.972,12.969z"/>
	<path fill="#939598" d="M23.216,16.72c-0.005-0.125-0.008-0.26-0.01-0.391c1.355-0.156,2.639-0.861,2.738-2.059
		c0.145-1.748-1.404-2.393-2.802-2.799c-0.005-0.74-0.011-1.482-0.022-2.216c0.547,0.116,0.992,0.312,1.149,0.507
		c0.234,0.291,0.66,0.336,0.95,0.104c0.29-0.236,0.336-0.662,0.102-0.952c-0.441-0.55-1.307-0.894-2.229-1.039
		c-0.006-0.2-0.011-0.405-0.017-0.602c-0.013-0.374-0.307-0.666-0.699-0.654c-0.373,0.014-0.665,0.326-0.653,0.699
		c0.006,0.161,0.009,0.33,0.014,0.492c-0.29,0.02-0.569,0.053-0.822,0.115c-1.046,0.26-1.713,0.881-1.879,1.745
		c-0.348,1.824,1.331,2.438,2.761,2.836c0.005,0.801,0.012,1.607,0.024,2.402c-0.526-0.143-1.081-0.465-1.168-1.217
		c-0.044-0.371-0.383-0.641-0.75-0.592c-0.371,0.041-0.636,0.379-0.593,0.75c0.153,1.309,1.122,2.209,2.542,2.447
		c0.005,0.156,0.007,0.314,0.013,0.467c0.013,0.367,0.313,0.654,0.676,0.654c0.007,0,0.015,0,0.023,0
		C22.935,17.405,23.228,17.093,23.216,16.72z M24.596,14.157c-0.026,0.322-0.622,0.691-1.421,0.812
		c-0.011-0.686-0.018-1.379-0.023-2.076C24.197,13.233,24.646,13.558,24.596,14.157z M20.365,9.927
		c0.062-0.329,0.358-0.559,0.878-0.689c0.167-0.042,0.344-0.065,0.523-0.08c0.01,0.64,0.017,1.285,0.022,1.933
		C20.645,10.743,20.261,10.47,20.365,9.927z"/>
	<path fill="#939598" d="M28.452,20.226c1.328,0,2.408-1.082,2.408-2.408c0-1.328-1.08-2.408-2.408-2.408s-2.408,1.08-2.408,2.408
		C26.044,19.144,27.124,20.226,28.452,20.226z M28.452,16.761c0.592,0,1.056,0.463,1.056,1.057c0,0.592-0.463,1.055-1.056,1.055
		c-0.583,0-1.056-0.473-1.056-1.055S27.87,16.761,28.452,16.761z"/>
	<path fill="#939598" d="M25.42,22.823h5.63c1.329,0,2.408-1.08,2.408-2.406v-5.631c0-1.148-0.614-2.627-1.43-3.441L22.367,1.67
		c-0.939-0.904-2.524-0.882-3.405,0l-6.657,6.643c-0.449,0.467-0.7,1.085-0.7,1.708c0,0.637,0.255,1.254,0.7,1.697l9.688,9.676
		C22.79,22.206,24.266,22.823,25.42,22.823z M12.958,10.021c0-0.275,0.114-0.554,0.312-0.762l6.647-6.633
		c0.189-0.19,0.467-0.303,0.74-0.303c0.278,0,0.556,0.113,0.763,0.312l9.652,9.665c0.561,0.561,1.034,1.699,1.034,2.486v5.631
		c0,0.57-0.482,1.053-1.056,1.053h-5.63c-0.791,0-1.919-0.469-2.466-1.027l-9.693-9.682C13.07,10.573,12.958,10.296,12.958,10.021z"
		/>
	<path fill="#939598" d="M93.542,11.864c-0.035-0.043-0.072-0.083-0.113-0.119c-0.108-0.272-0.331-0.485-0.61-0.58l-0.173-0.059
		c-0.022-0.007-0.071-0.102-0.071-0.102c-0.114-0.219-0.304-0.385-0.529-0.471l-0.789-1.863c-0.107-0.252-0.314-0.451-0.572-0.546
		l-0.784-0.292c-0.268-0.1-0.563-0.08-0.814,0.052l-0.308,0.162c-0.258-0.105-0.55-0.099-0.806,0.023
		c-0.306,0.145-0.517,0.435-0.562,0.77l-0.509,3.783c-0.064,0.056-0.121,0.118-0.168,0.187c-0.257,0.126-0.445,0.353-0.522,0.62
		c-0.731,0.185-1.797,0.495-3.377,0.956c-0.202,0.059-0.38,0.181-0.51,0.347l-1.026,1.321c-0.012,0.016-0.024,0.032-0.036,0.049
		l-0.442,0.625c-0.124,0.174-0.188,0.382-0.185,0.596l0.003,0.196c0.003,0.172,0.062,0.351,0.156,0.505
		c0.004,0.019,0.016,0.063,0.016,0.063l-0.128,0.117l-2.521,0.548c-0.466,0.102-0.795,0.518-0.788,0.993
		c0.003,0.196,0.063,0.381,0.166,0.535c0.009,0.017,0.021,0.037,0.034,0.061l-0.675,0.797c-0.01,0.006-0.019,0.012-0.028,0.018
		l-2.213,1.453c0.181-0.166,0.299-0.396,0.32-0.652l0.042-0.505c0.162-0.306,0.159-0.683-0.03-0.991l-1.081-1.77
		c-0.114-0.186-0.283-0.327-0.48-0.406l-0.136-0.461c0.078-0.243,0.061-0.512-0.055-0.748l-0.203-0.412
		c-0.114-0.23-0.313-0.409-0.555-0.497l-0.119-0.043c0.008-0.033,0.015-0.066,0.02-0.101c0.058-0.404-0.135-0.798-0.479-1.002
		c-0.059-0.069-0.126-0.13-0.201-0.181c-0.021-0.028-0.043-0.056-0.067-0.082l-0.299-0.327c-0.195-0.214-0.465-0.325-0.739-0.325
		c-0.041-0.05-0.08-0.096-0.121-0.137c-0.291-0.291-0.733-0.377-1.11-0.208l-1.78,0.784l-0.344-0.029l-0.143-0.122
		c0.141-0.257,0.168-0.574,0.047-0.864c-0.204-0.491-0.754-0.735-1.256-0.561l-0.291,0.103c-0.117,0.042-0.225,0.104-0.317,0.184
		l-0.513,0.246c0.144-0.278,0.153-0.617,0.004-0.911c-0.21-0.417-0.683-0.629-1.133-0.52c-0.126-0.051-0.268-0.073-0.398-0.074
		l-0.397,0.008l-0.113-0.07c-0.314-0.197-0.709-0.205-1.031-0.02l-0.167,0.096l-0.369-0.196c-0.158-0.084-0.324-0.128-0.506-0.116
		c-0.131-0.136-0.301-0.234-0.495-0.279l-0.783-0.18c-0.243-0.055-0.501-0.018-0.719,0.106l-0.029,0.016l-0.186-0.065l-0.064-0.345
		c-0.07-0.373-0.345-0.675-0.71-0.778l-0.462-0.131c-0.292-0.083-0.608-0.03-0.855,0.149c-0.098,0.069-0.18,0.155-0.246,0.252
		l-1.261-0.211c-0.546-0.088-1.06,0.277-1.151,0.821c-0.091,0.545,0.277,1.061,0.821,1.151l2.202,0.368
		c0.118,0.19,0.299,0.34,0.517,0.417l1.161,0.41c0.272,0.095,0.575,0.069,0.829-0.075c0.089,0.075,0.183,0.143,0.288,0.192
		l0.477,0.227c0.211,0.101,0.447,0.122,0.669,0.067l0.423,0.225c0.015,0.008-0.807,0.688-0.807,0.688
		c-0.221,0.183-0.353,0.451-0.362,0.737c-0.009,0.286,0.104,0.562,0.312,0.76l0.17,0.161c0.275,0.26,0.673,0.344,1.029,0.213
		l0.321-0.116c0.014,0.013,0.028,0.024,0.043,0.037c0.3,0.243,0.715,0.292,1.063,0.125l1.809-0.869
		c0.075,0.089,0.167,0.166,0.274,0.227c0.309,0.172,0.673,0.164,0.966,0.006l0.285,0.242c0.109,0.094,0.236,0.161,0.373,0.2
		c-1.048,1.205-1.701,3.828-1.712,4.001c-0.084,1.313,0.319,3.713,1.759,4.558c0.447,0.261,1.377,0.585,2.582-0.192
		c0.213-0.138,0.367-0.353,0.428-0.6l0.488-1.97c0.054-0.218,0.033-0.448-0.06-0.653l-0.463-1.021
		c0.016-0.122,0.009-0.246-0.021-0.366L69.5,19.966l0.275-0.666c0.362-0.08,0.661-0.357,0.755-0.734l0.14-0.562
		c0.11-0.069,0.205-0.16,0.279-0.265l0.261,0.095c0.005,0.022,0.011,0.045,0.018,0.067l0.212,0.719l-0.382,0.587
		c-0.154,0.237-0.201,0.528-0.129,0.802l0.091,0.344c0.137,0.52,0.663,0.836,1.188,0.72l0.4-0.091
		c0.101-0.023,0.197-0.062,0.285-0.113l0.141,0.231c-0.04,0.057-0.075,0.118-0.103,0.184c-0.001,0.002-0.162,0.384-0.23,0.53
		c-0.004,0.007-0.217,0.383-0.217,0.383c-0.086,0.153-0.129,0.321-0.13,0.49l-0.186,0.617c-0.083,0.274-0.043,0.572,0.108,0.816
		s0.402,0.411,0.685,0.458l0.385,0.064c0.124,0.101,0.272,0.172,0.435,0.205l0.446,0.09c0.257,0.05,0.526-0.001,0.746-0.145
		l2.788-1.831c0.181-0.055,0.346-0.16,0.474-0.311l1.332-1.568c0.157-0.186,0.236-0.413,0.237-0.641l1.564-0.34
		c0.172-0.038,0.331-0.12,0.461-0.238l0.765-0.697c0.271-0.246,0.385-0.621,0.298-0.977l-0.052-0.212
		c0.094-0.226,0.102-0.478,0.024-0.706c0.011,0.008,0.838-1.058,0.838-1.058c0.909-0.265,3.511-1.023,3.72-1.082
		c0.377-0.1,0.658-0.407,0.729-0.781c0.256-0.101,0.467-0.304,0.571-0.575l0.133-0.35c0.074-0.194,0.085-0.405,0.035-0.603
		l0.373-2.773l0.33-0.174l0.824,1.947c0.116,0.273,0.344,0.478,0.62,0.564l0.021,0.041c0.037,0.071,0.083,0.137,0.135,0.197
		l-0.074,0.022c-0.168,0.05-0.318,0.144-0.437,0.269c-0.291,0.03-0.557,0.188-0.724,0.436l-0.135,0.2
		c-0.123,0.184-0.183,0.402-0.168,0.623l0.008,0.119c-0.051,0.027-0.101,0.06-0.147,0.096l-0.218,0.172
		c-0.052,0.041-0.1,0.087-0.142,0.137c-0.266,0.154-0.45,0.426-0.49,0.738c-0.084,0.658-0.042,1.31,0,1.939
		c0.068,1.038,0.127,1.936-0.383,2.587c-0.142,0.182-0.689,0.452-1.09,0.65c-0.87,0.43-1.771,0.875-2.113,1.736l-0.146,0.363
		c-0.099,0.247-0.095,0.524,0.01,0.769c0.062,0.145,0.157,0.271,0.276,0.37c-0.334,1.613-0.533,3.151-0.485,5.03
		c0.009,0.372,0.038,0.755,0.067,1.143c0.065,0.854,0.132,1.735-0.046,2.46c-0.087,0.353-0.518,0.723-0.935,1.08
		c-0.561,0.481-1.141,0.979-1.292,1.74l-0.04,0.196l-0.585,0.21c-0.243,0.087-0.443,0.266-0.558,0.496l-0.639,1.287
		c-0.069,0.04-0.133,0.088-0.191,0.145l-1.211,1.167c-0.11,0.105-0.192,0.233-0.244,0.372c-0.129,0.116-0.228,0.266-0.283,0.436
		l-0.12,0.37c-0.124,0.154-0.203,0.347-0.217,0.558l-0.22,3.271c-0.012,0.18,0.024,0.359,0.106,0.52l1.192,2.351
		c0.021,0.076,0.05,0.151,0.089,0.223l0.638,1.209c0.037,0.073,0.082,0.141,0.133,0.2l0.907,1.657
		c-0.013,0.322-0.034,0.87-0.052,1.342c-0.41-0.49-0.912-0.943-1.29-1.259c0.031-0.292-0.068-0.586-0.275-0.8
		c-0.174-0.181-0.408-0.287-0.653-0.304l0.024-0.044c0.212-0.384,0.15-0.86-0.154-1.177l-0.129-0.135
		c-0.084-0.088-0.183-0.159-0.291-0.21l0.031-0.682c0.015-0.321-0.125-0.63-0.377-0.829l-2.405-1.908
		c-0.256-0.204-0.594-0.269-0.907-0.175l-0.609,0.182c-0.254,0.075-0.457,0.244-0.581,0.458c-0.159-0.053-0.318-0.114-0.429-0.166
		c-0.076-0.045-0.16-0.081-0.249-0.105c-0.276-0.074-0.533-0.15-0.783-0.226c-1.123-0.335-2.283-0.679-3.882-0.413l-0.258,0.042
		c-1.187,0.191-2.811,0.453-3.37,1.697c-0.133,0.295-0.188,0.607-0.167,0.936c-1.019-0.045-2.376-0.149-2.68-0.194
		c-1.235-0.221-2.081-0.343-3.088-0.047c-0.274-0.309-0.714-0.42-1.106-0.269l-0.386,0.148c-0.346,0.133-0.589,0.446-0.634,0.813
		l-0.035,0.291c-0.005,0.044-0.008,0.087-0.007,0.131l-0.855,0.59c-0.164-0.024-0.333-0.01-0.492,0.047
		c-0.383-0.049-0.759,0.099-0.982,0.406c-0.053,0.073-0.096,0.152-0.127,0.234c-0.149,0.104-0.267,0.245-0.342,0.412
		c-0.321,0.091-0.567,0.317-0.679,0.615c-0.005,0.013-0.009,0.026-0.014,0.039c-0.211,0.164-0.35,0.406-0.381,0.673
		c-0.008,0.069-0.009,0.139-0.003,0.207c-0.216,0.156-0.367,0.396-0.405,0.677c-0.031,0.23,0.019,0.454,0.13,0.642
		c-0.006,0.137,0.016,0.273,0.065,0.401c0.005,0.057,0.015,0.112,0.03,0.168c0.005,0.019-0.926-0.305-0.926-0.305l-3.449-5.963
		c-0.147-0.254-0.398-0.431-0.687-0.483l-1.522-0.276c-0.202-0.036-0.409-0.01-0.594,0.075l-0.537,0.245
		c-0.176,0.08-0.325,0.21-0.429,0.373l-0.044,0.07l-4.229-4.589c-0.163-0.177-0.384-0.289-0.623-0.315l-2.522-0.286
		c-0.37-0.047-0.71,0.119-0.915,0.396l-7.959-3.215c-0.014-0.058-0.034-0.113-0.058-0.168c-0.141-0.312-0.431-0.53-0.769-0.579
		l-3.037-0.438l-0.808-2.113c-0.08-0.209-0.224-0.378-0.404-0.49c-0.066-0.296-0.265-0.548-0.542-0.682l-0.626-0.302l-0.279-0.442
		c-0.123-0.195-0.309-0.342-0.526-0.415l-0.604-0.204l0.028-0.099c0.056-0.192,0.052-0.397-0.01-0.589l-0.877-2.688
		c0.135-0.216,0.184-0.478,0.132-0.732l-0.108-0.526c-0.02-0.097-0.054-0.189-0.1-0.274c0.093-0.157,0.144-0.341,0.14-0.533
		l-0.011-0.473c0-0.025-0.002-0.05-0.004-0.074c0.109-0.181,0.161-0.394,0.141-0.61c-0.031-0.34,0.996-2.856,0.693-3.013
		l-0.283-0.146c-0.184-0.096-0.391-0.132-0.594-0.102c-0.486,0.072-1.44,1.303-1.644,1.724c-0.18,0.372-0.144,0.82-0.314,1.229
		c-0.389,0.929-0.308,1.346-0.312,2.323c-0.001,0.222,0.071,0.432,0.199,0.603c-0.08,0.21-0.089,0.445-0.017,0.668l0.963,2.952
		l-0.133,0.459c-0.075,0.259-0.042,0.536,0.09,0.771l0.202,0.357c0.122,0.215,0.317,0.377,0.551,0.455l0.896,0.303l0.243,0.385
		c0.1,0.159,0.243,0.287,0.412,0.369l0.38,0.183c0.028,0.23,0.134,0.444,0.303,0.605l0.129,0.123
		c0.071,0.067,0.151,0.124,0.237,0.168l0.8,2.094c0.129,0.339,0.433,0.581,0.792,0.633l2.667,0.384
		c0.11,0.19,0.282,0.341,0.49,0.425l9.864,3.985c0.288,0.116,0.614,0.095,0.881-0.064c0.205-0.12,0.357-0.308,0.436-0.526
		l1.193,0.135l4.858,5.271c0.211,0.229,0.517,0.351,0.825,0.318c0.309-0.027,0.588-0.197,0.755-0.46l0.576-0.907l0.747,0.136
		l3.404,5.885c0.12,0.208,0.311,0.365,0.538,0.443l2.813,0.976c0.106,0.037,0.217,0.056,0.328,0.056c0.13,0,0.26-0.025,0.382-0.076
		l0.328-0.136c0.342-0.142,0.579-0.461,0.613-0.83l0.018-0.187c0.03-0.317-0.125-0.638-0.367-0.853l-0.171-0.636
		c0.005-0.043,0.008-0.087,0.008-0.13c0.01-0.046,0.017-0.093,0.021-0.14l0.031-0.404l0.192-0.32c0.05-0.083,0.087-0.172,0.11-0.263
		l0.21-0.286c0.129-0.084,0.238-0.197,0.317-0.33l0.245-0.088c0.12-0.043,0.228-0.108,0.321-0.189
		c0.084-0.004,0.168-0.019,0.25-0.043l0.253-0.078c0.29-0.09,0.51-0.299,0.623-0.557l1.188-0.819c0.061-0.02,0.12-0.044,0.177-0.075
		c1.069-0.581,1.505-0.535,3.009-0.265c0.045,0.009,4.556,0.76,5.242-0.268c0.22-0.33,0.223-0.782,0.011-1.116
		c-0.217-0.342-0.226-0.502-0.235-0.503c0.198-0.278,1.409-0.473,1.866-0.547l0.271-0.044c1.14-0.19,1.952,0.05,2.979,0.357
		c0.253,0.075,0.513,0.152,0.783,0.226c0.63,0.312,1.807,0.707,2.54,0.295c0.11-0.062,0.217-0.144,0.312-0.245l1.256,0.996
		l-0.061,1.312c-0.011,0.231,0.06,0.46,0.199,0.646l0.211,0.282c0.04,0.146,0.114,0.284,0.219,0.403l0.825,0.922
		c0.061,0.235,0.207,0.451,0.41,0.594c0.28,0.197,1.213,1.054,1.593,1.529c-0.016,0.14-0.001,0.285,0.046,0.428
		c0.177,0.523,0.743,0.802,1.266,0.629c0.493-0.166,0.92-0.413,1.332-0.656c0.65-0.129,0.674-0.737,0.729-2.187l0.048-1.253
		c0.007-0.181-0.035-0.359-0.122-0.519l-1.32-2.411l-0.441-0.921c-0.039-0.082-0.089-0.155-0.147-0.219l-1.031-2.03l0.177-2.641
		c0.018-0.038,0.034-0.077,0.047-0.118l0.057-0.175c0.088-0.078,0.164-0.172,0.222-0.281l0.173-0.324
		c0.029-0.054,0.052-0.11,0.071-0.168l0.689-0.663c0.271-0.075,0.501-0.263,0.628-0.519l0.659-1.326l0.246-0.089
		c0.521,0.055,1.007-0.281,1.11-0.795l0.17-0.858c0.055-0.133,0.406-0.435,0.639-0.634c0.594-0.51,1.333-1.145,1.574-2.119
		c0.255-1.035,0.172-2.127,0.099-3.09c-0.027-0.354-0.054-0.703-0.062-1.042c-0.05-1.976,0.207-3.559,0.608-5.326
		c0.053-0.232,0.02-0.466-0.079-0.666c0.249-0.153,0.581-0.317,0.816-0.434c0.667-0.329,1.356-0.671,1.778-1.21
		c0.98-1.252,0.887-2.686,0.804-3.95c-0.021-0.312-0.04-0.616-0.043-0.903c0.075-0.067,0.139-0.146,0.189-0.229
		c0.052-0.044,0.1-0.093,0.142-0.146c0.173-0.078,0.323-0.206,0.429-0.372l0.162-0.253c0.053-0.082,0.093-0.172,0.119-0.266
		c0.108-0.07,0.204-0.161,0.279-0.271c0.015-0.002,0.031-0.006,0.046-0.009c0.328-0.076,0.596-0.312,0.713-0.628
		c0.102-0.076,0.19-0.173,0.258-0.286c0.201-0.098,0.364-0.261,0.463-0.462l0.239-0.49C93.832,12.581,93.785,12.166,93.542,11.864z
		 M67.48,20.127l0.06,0.243c-0.059,0.222-0.04,0.457,0.056,0.668l0.481,1.061l-0.294,1.187c-0.063,0.018-0.123,0.02-0.167-0.007
		c-0.444-0.261-0.842-1.65-0.778-2.671c0.062-0.397,0.61-1.857,1.015-2.562c0.092,0.01,0.187,0.01,0.277-0.003l-0.604,1.464
		C67.446,19.703,67.429,19.921,67.48,20.127z M78.11,21.143c0.075,0.056,0.16,0.097,0.248,0.129
		C78.247,21.229,78.159,21.18,78.11,21.143z"/>
</g>
</svg>
