<?xml version="1.0" encoding="utf-8"?>
<!-- Generator: Adobe Illustrator 16.0.0, SVG Export Plug-In . SVG Version: 6.00 Build 0)  -->
<!DOCTYPE svg PUBLIC "-//W3C//DTD SVG 1.1//EN" "http://www.w3.org/Graphics/SVG/1.1/DTD/svg11.dtd">
<svg version="1.1" id="Layer_1" xmlns="http://www.w3.org/2000/svg" xmlns:xlink="http://www.w3.org/1999/xlink" x="0px" y="0px"
	 width="70.535px" height="55.677px" viewBox="0 0 70.535 55.677" enable-background="new 0 0 70.535 55.677" xml:space="preserve">
<g>
	<path fill="#939598" d="M32.441,30.671c2.336-3.113,3.762-7.354,3.762-11.355c0-7.205-4.733-12.046-11.778-12.046
		s-11.778,4.841-11.778,12.046c0,4.005,1.428,8.25,3.767,11.363C4.348,34.412,1.804,46.455,1.804,49.641
		c0,3.254,14.737,4.957,22.638,4.957c7.104,0,12.681-0.925,15.374-1.476c7.264-1.487,7.264-2.785,7.264-3.481
		C47.079,46.448,44.529,34.394,32.441,30.671z M15.147,19.316c0-5.799,3.642-9.546,9.278-9.546s9.278,3.747,9.278,9.546
		c0,6.108-4.139,13.486-9.278,13.486C19.286,32.802,15.147,25.424,15.147,19.316z M24.442,52.098
		c-10.166,0-18.232-1.937-20.093-2.925c0.288-2.429,2.265-13.548,13.954-16.424c1.762,1.572,3.841,2.554,6.123,2.554
		c2.285,0,4.366-0.985,6.129-2.561c11.712,2.867,13.693,14.002,13.98,16.431C42.674,50.161,34.608,52.098,24.442,52.098z"/>
	<path fill="#939598" d="M54.433,17.05c-0.007-1.095-0.016-2.194-0.032-3.281c0.808,0.175,1.468,0.463,1.699,0.751
		c0.346,0.431,0.976,0.498,1.406,0.152c0.43-0.346,0.499-0.976,0.152-1.406c-0.653-0.812-1.934-1.322-3.299-1.538
		c-0.008-0.297-0.015-0.6-0.024-0.891c-0.019-0.552-0.454-0.983-1.034-0.965c-0.552,0.019-0.984,0.482-0.965,1.034
		c0.008,0.237,0.013,0.485,0.02,0.728c-0.427,0.028-0.843,0.077-1.216,0.17c-1.548,0.386-2.535,1.304-2.779,2.583
		c-0.515,2.699,1.969,3.604,4.083,4.191c0.008,1.187,0.018,2.379,0.037,3.556c-0.778-0.208-1.599-0.688-1.729-1.8
		c-0.064-0.549-0.566-0.946-1.109-0.877c-0.548,0.064-0.941,0.561-0.877,1.109c0.227,1.937,1.66,3.268,3.76,3.622
		c0.007,0.231,0.011,0.467,0.019,0.694c0.019,0.54,0.462,0.966,0.999,0.966c0.011,0,0.023,0,0.035,0
		c0.552-0.019,0.984-0.481,0.965-1.034c-0.006-0.188-0.01-0.386-0.016-0.578c2.006-0.232,3.904-1.275,4.051-3.046
		C58.791,18.602,56.501,17.648,54.433,17.05z M50.324,14.761c0.092-0.483,0.529-0.825,1.299-1.017
		c0.248-0.062,0.509-0.097,0.774-0.118c0.015,0.946,0.025,1.902,0.032,2.86C50.739,15.972,50.171,15.565,50.324,14.761z
		 M54.48,22.224c-0.016-1.014-0.027-2.042-0.034-3.071c1.547,0.504,2.21,0.984,2.137,1.871
		C56.545,21.496,55.664,22.042,54.48,22.224z"/>
	<path fill="#939598" d="M44.772,22.873c-1.964,0-3.562,1.598-3.562,3.562c0,1.965,1.598,3.563,3.562,3.563
		c1.964,0,3.562-1.598,3.562-3.563C48.334,24.471,46.736,22.873,44.772,22.873z M44.772,27.998c-0.876,0-1.562-0.687-1.562-1.563
		c0-0.876,0.687-1.562,1.562-1.562c0.861,0,1.562,0.701,1.562,1.562C46.334,27.296,45.633,27.998,44.772,27.998z"/>
	<path fill="#939598" d="M68.658,12.375l-9.846-9.827c-1.304-1.304-3.647-1.336-5.038,0L39.482,16.86
		c-1.206,1.206-2.115,3.394-2.115,5.09v8.328c0,1.964,1.598,3.562,3.562,3.562h8.328c1.709,0,3.892-0.912,5.069-2.114l14.332-14.312
		c0.658-0.656,1.035-1.571,1.035-2.51C69.692,13.982,69.321,13.066,68.658,12.375z M67.245,15.999l-14.339,14.32
		c-0.808,0.825-2.479,1.521-3.648,1.521h-8.328c-0.847,0-1.562-0.715-1.562-1.562v-8.328c0-1.164,0.7-2.847,1.53-3.677L55.174,3.977
		c0.306-0.294,0.717-0.462,1.128-0.462c0.405,0,0.814,0.167,1.096,0.449l9.832,9.812c0.294,0.306,0.462,0.717,0.462,1.128
		C67.692,15.31,67.525,15.719,67.245,15.999z"/>
</g>
</svg>
