<?xml version="1.0" encoding="utf-8"?>
<!-- Generator: Adobe Illustrator 16.0.0, SVG Export Plug-In . SVG Version: 6.00 Build 0)  -->
<!DOCTYPE svg PUBLIC "-//W3C//DTD SVG 1.1//EN" "http://www.w3.org/Graphics/SVG/1.1/DTD/svg11.dtd">
<svg version="1.1" id="Layer_1" xmlns="http://www.w3.org/2000/svg" xmlns:xlink="http://www.w3.org/1999/xlink" x="0px" y="0px"
	 width="57.25px" height="55.677px" viewBox="0 0 57.25 55.677" enable-background="new 0 0 57.25 55.677" xml:space="preserve">
<g>
	<path fill="#939598" d="M22.271,25.651c0.717,0,1.074-0.381,1.074-1.144c0.048-1.811,0.404-3.717,1.737-5.051
		c1.338-1.334,3.219-1.668,4.983-1.668c0.763,0.047,1.144-0.31,1.144-1.073c0-0.762-0.381-1.144-1.144-1.144
		c-2.428,0-4.862,0.525-6.625,2.241c-1.764,1.716-2.312,4.17-2.312,6.695C21.177,25.27,21.559,25.651,22.271,25.651z"/>
	<path fill="#939598" d="M54.996,26.053v-0.192l-0.106-0.095c-2.406-4.205-6.032-7.629-10.877-10.274
		c-4.848-2.645-9.995-3.967-15.441-3.967c-5.448,0-10.578,1.322-15.387,3.967C8.373,18.137,4.73,21.529,2.254,25.67v0.191
		c-0.071,0.065-0.106,0.112-0.106,0.144v0.86c0,0.033,0.035,0.08,0.106,0.144v0.096c2.476,4.205,6.119,7.63,10.931,10.274
		c4.81,2.645,9.939,3.967,15.387,3.967c5.446,0,10.593-1.322,15.441-3.967c4.845-2.644,8.471-6.069,10.877-10.274l0.106-0.096
		v-0.191c0.07-0.191,0.106-0.318,0.106-0.382C55.102,26.372,55.066,26.244,54.996,26.053z M27.52,14.527
		c0.357-0.016,0.712-0.035,1.072-0.038c2.446,0.068,4.559,0.943,6.338,2.627c1.785,1.689,2.66,3.807,2.629,6.355
		c-0.032,2.549-0.908,4.668-2.629,6.356c-1.72,1.689-3.839,2.549-6.355,2.58c-2.517,0.033-4.636-0.829-6.356-2.58
		c-1.72-1.752-2.581-3.872-2.581-6.356c-0.064-2.421,0.795-4.541,2.581-6.355C23.74,15.567,25.51,14.708,27.52,14.527z
		 M41.891,35.132c-4.175,2.135-8.597,3.218-13.266,3.25c-4.669,0.032-9.092-1.051-13.264-3.25c-4.175-2.198-7.412-5.096-9.71-8.697
		c2.299-3.663,5.535-6.562,9.71-8.698c1.47-0.751,2.972-1.366,4.503-1.856c-1.934,2.146-2.912,4.674-2.912,7.594
		c0,3.184,1.148,5.908,3.448,8.171c2.299,2.265,5.023,3.415,8.172,3.45c3.147,0.035,5.871-1.114,8.171-3.45
		c2.299-2.334,3.448-5.058,3.448-8.171c0-2.915-1.021-5.485-3.038-7.717c1.612,0.508,3.191,1.167,4.736,1.979
		c4.172,2.199,7.41,5.098,9.71,8.698C49.301,30.099,46.063,32.999,41.891,35.132z"/>
</g>
</svg>
