<?xml version="1.0" encoding="utf-8"?>
<!-- Generator: Adobe Illustrator 16.0.0, SVG Export Plug-In . SVG Version: 6.00 Build 0)  -->
<!DOCTYPE svg PUBLIC "-//W3C//DTD SVG 1.1//EN" "http://www.w3.org/Graphics/SVG/1.1/DTD/svg11.dtd">
<svg version="1.1" id="Layer_1" xmlns="http://www.w3.org/2000/svg" xmlns:xlink="http://www.w3.org/1999/xlink" x="0px" y="0px"
	 width="41.833px" height="55.677px" viewBox="0 0 41.833 55.677" enable-background="new 0 0 41.833 55.677" xml:space="preserve">
<g>
	<path fill="#939598" d="M8.754,23.384h13.831c1.09,0,1.976-0.886,1.976-1.976v-4.939h-1.976v4.939H8.754V9.553h9.879V7.578H8.754
		c-1.091,0-1.977,0.887-1.977,1.976v11.855C6.778,22.498,7.663,23.384,8.754,23.384z"/>
	<polygon fill="#939598" points="12.589,12.632 10.843,14.379 15.712,19.246 26.462,7.42 24.634,5.759 15.626,15.668 	"/>
	<path fill="#939598" d="M41.444,10.894c-0.007-0.113-0.029-0.222-0.066-0.329c-0.015-0.041-0.026-0.082-0.044-0.121
		c-0.056-0.121-0.129-0.233-0.224-0.333c-0.007-0.008-0.011-0.018-0.019-0.025c-0.002-0.002-0.002-0.004-0.004-0.006l-9.663-9.488
		c-0.104-0.102-0.226-0.177-0.354-0.236c-0.037-0.017-0.076-0.026-0.115-0.04c-0.107-0.037-0.216-0.06-0.33-0.066
		c-0.026-0.002-0.049-0.016-0.077-0.016H1.558c-0.69,0-1.25,0.56-1.25,1.25v52.709c0,0.69,0.56,1.25,1.25,1.25h38.651
		c0.69,0,1.25-0.56,1.25-1.25V10.972C41.459,10.944,41.445,10.921,41.444,10.894z M31.796,4.463l5.356,5.259h-5.356V4.463z
		 M38.959,52.943H2.808V2.734h26.488v8.238c0,0.69,0.56,1.25,1.25,1.25h8.413V52.943z"/>
	<path fill="#939598" d="M5.564,37.354h30.58v-9.549H5.564V37.354z M7.991,30.232h25.727v4.695H7.991V30.232z"/>
	<path fill="#939598" d="M5.564,49.537h30.58v-9.549H5.564V49.537z M7.991,42.415h25.727v4.695H7.991V42.415z"/>
</g>
</svg>
