<?xml version="1.0" encoding="utf-8"?>
<!-- Generator: Adobe Illustrator 16.0.0, SVG Export Plug-In . SVG Version: 6.00 Build 0)  -->
<!DOCTYPE svg PUBLIC "-//W3C//DTD SVG 1.1//EN" "http://www.w3.org/Graphics/SVG/1.1/DTD/svg11.dtd">
<svg version="1.1" id="Layer_1" xmlns="http://www.w3.org/2000/svg" xmlns:xlink="http://www.w3.org/1999/xlink" x="0px" y="0px"
	 width="88.5px" height="55.677px" viewBox="0 0 88.5 55.677" enable-background="new 0 0 88.5 55.677" xml:space="preserve">
<g>
	<path fill="#939598" d="M51.731,27.754c2.186-2.989,3.514-7.002,3.514-10.792c0-6.978-4.585-11.666-11.409-11.666
		S32.427,9.984,32.427,16.962c0,3.793,1.331,7.811,3.521,10.801c-11.474,3.661-13.899,15.168-13.899,18.224
		c0,0.755,0,2.02,7.062,3.466c2.582,0.528,7.93,1.415,14.742,1.415s12.16-0.887,14.742-1.415c7.062-1.446,7.062-2.71,7.062-3.466
		C65.655,42.925,63.224,31.407,51.731,27.754z M35.093,16.962c0-5.467,3.432-9,8.743-9s8.743,3.533,8.743,9
		c0,5.784-3.9,12.771-8.743,12.771C38.992,29.732,35.093,22.746,35.093,16.962z M43.852,48.201c-9.521,0-17.194-1.803-19.09-2.746
		c0.281-2.465,2.145-12.727,13.193-15.479c1.696,1.492,3.692,2.421,5.881,2.421c2.191,0,4.189-0.932,5.887-2.427
		c11.072,2.743,12.938,13.021,13.22,15.484C61.047,46.398,53.372,48.201,43.852,48.201z"/>
	<path fill="#939598" d="M76.039,23.442c1.802-2.564,2.886-5.938,2.886-9.124c0-6.079-3.996-10.163-9.942-10.163
		c-5.947,0-9.943,4.084-9.943,10.163c0,3.186,1.084,6.56,2.886,9.125c-1.848,0.617-3.521,1.499-4.99,2.637l1.634,2.106
		c1.52-1.178,3.32-2.022,5.341-2.538c1.467,1.267,3.188,2.053,5.073,2.053c1.887,0,3.609-0.788,5.078-2.057
		c9.032,2.294,10.742,10.636,11.035,12.903c-1.78,0.802-8.253,2.269-16.101,2.269v2.666c4.825,0,18.824-1.075,18.824-4.364
		C87.819,36.505,85.755,26.687,76.039,23.442z M68.982,25.036c-3.673,0-7.277-5.309-7.277-10.717c0-5.527,3.759-7.497,7.277-7.497
		c3.518,0,7.276,1.969,7.276,7.497C76.259,19.728,72.654,25.036,68.982,25.036z"/>
	<path fill="#939598" d="M14.446,25.651c1.467,1.266,3.188,2.051,5.071,2.051c1.882,0,3.601-0.783,5.065-2.045
		c2.024,0.517,3.83,1.351,5.349,2.53l1.635-2.105c-1.47-1.14-3.151-2.008-5.001-2.625c1.808-2.566,2.896-5.946,2.896-9.137
		c0-6.079-3.996-10.163-9.943-10.163c-5.946,0-9.942,4.084-9.942,10.163c0,3.188,1.086,6.565,2.891,9.13
		C2.77,26.692,0.681,36.462,0.681,39.119c0,3.29,13.999,4.364,18.824,4.364v-2.666c-7.847,0-14.319-1.467-16.101-2.269
		C3.699,36.275,5.423,27.945,14.446,25.651z M12.241,14.319c0-5.527,3.759-7.497,7.276-7.497c3.519,0,7.277,1.969,7.277,7.497
		c0,5.409-3.604,10.717-7.277,10.717C15.846,25.036,12.241,19.728,12.241,14.319z"/>
</g>
</svg>
