<?xml version="1.0" encoding="utf-8"?>
<!-- Generator: Adobe Illustrator 16.0.0, SVG Export Plug-In . SVG Version: 6.00 Build 0)  -->
<!DOCTYPE svg PUBLIC "-//W3C//DTD SVG 1.1//EN" "http://www.w3.org/Graphics/SVG/1.1/DTD/svg11.dtd">
<svg version="1.1" id="Layer_1" xmlns="http://www.w3.org/2000/svg" xmlns:xlink="http://www.w3.org/1999/xlink" x="0px" y="0px"
	 width="45.202px" height="55.677px" viewBox="0 0 45.202 55.677" enable-background="new 0 0 45.202 55.677" xml:space="preserve">
<path fill="#939598" d="M40.785,44.197c-0.042-0.091-4.374-9.104-6.648-9.663c-0.229-0.056-0.471-0.084-0.721-0.084
	c-2.043,0-4.692,2.094-5.954,3.713c-1.77-0.519-5.29-2.303-8.82-8.414c-2.336-4.045-2.976-7.578-2.631-9.666
	c0.27,0.032,0.552,0.047,0.844,0.047c2.531,0,6.434-1.332,7.04-3.501c0.617-2.213-4.998-11.827-5.055-11.921
	c-1.89-3.107-2.854-3.865-3.719-4.046c-0.188-0.039-0.39-0.059-0.599-0.059c-2.618,0-8.229,3.739-9.611,6.971
	C4.84,7.737,4.761,7.911,4.675,8.1c-1.457,3.199-4.489,9.855,4.884,26.917c4.361,7.938,11.756,17.737,22.229,19.35
	c0.229,0.035,0.477,0.053,0.74,0.053c2.911,0,8.271-2.445,9.414-4.729C42.315,48.944,42.434,47.76,40.785,44.197z M35.538,50.901
	c-0.024-0.072-0.05-0.144-0.086-0.213l-3.512-6.668c-0.36-0.684-1.206-0.944-1.887-0.585c-0.683,0.359-0.945,1.204-0.585,1.887
	l3.313,6.291c-0.085,0.005-0.173,0.014-0.253,0.014c-0.111,0-0.216-0.006-0.322-0.022c-9.34-1.438-16.139-10.545-20.197-17.933
	C3.31,17.838,5.95,12.042,7.218,9.257c0.096-0.209,0.184-0.404,0.262-0.585C8.43,6.45,12.848,3.511,14.458,3.4
	c1.566,1.237,6.211,10.309,6.675,12.527c-0.525,0.536-2.463,1.41-4.278,1.41c-0.248,0-0.479-0.018-0.686-0.052l-3.449-6.854
	c-0.347-0.689-1.187-0.968-1.876-0.62c-0.689,0.347-0.967,1.187-0.62,1.876l3.376,6.712c-1.103,3.097-0.129,7.987,2.622,12.749
	c4.744,8.213,9.768,9.708,11.708,9.97c0.662,0.09,1.282-0.268,1.497-0.901c0.359-0.769,2.695-2.824,3.918-2.96
	c1.783,1.593,5.958,9.706,6.031,11.295C38.933,49.192,37.267,50.213,35.538,50.901z"/>
</svg>
