<?xml version="1.0" encoding="utf-8"?>
<!-- Generator: Adobe Illustrator 16.0.0, SVG Export Plug-In . SVG Version: 6.00 Build 0)  -->
<!DOCTYPE svg PUBLIC "-//W3C//DTD SVG 1.1//EN" "http://www.w3.org/Graphics/SVG/1.1/DTD/svg11.dtd">
<svg version="1.1" id="Layer_1" xmlns="http://www.w3.org/2000/svg" xmlns:xlink="http://www.w3.org/1999/xlink" x="0px" y="0px"
	 width="57.25px" height="55.677px" viewBox="0 0 57.25 55.677" enable-background="new 0 0 57.25 55.677" xml:space="preserve">
<g>
	<path fill="#939598" d="M24.107,23.228c-0.125-1.739-0.266-3.476-0.419-5.209c0.534,0.197,0.946,0.428,1.168,0.667
		c0.392,0.424,1.054,0.451,1.477,0.058c0.424-0.392,0.45-1.053,0.058-1.477c-0.603-0.651-1.663-1.161-2.917-1.49
		c-0.075-0.777-0.143-1.557-0.223-2.331c-0.06-0.574-0.571-0.991-1.147-0.932c-0.574,0.06-0.991,0.573-0.932,1.147
		c0.061,0.582,0.11,1.168,0.167,1.752c-0.447-0.04-0.898-0.058-1.349-0.053c-0.026-0.449-0.051-0.903-0.081-1.341
		c-0.039-0.575-0.528-1.022-1.113-0.972c-0.576,0.039-1.011,0.537-0.972,1.113c0.031,0.455,0.056,0.928,0.083,1.396
		c-0.302,0.057-0.599,0.122-0.88,0.205c-1.945,0.573-3.167,1.743-3.438,3.293c-0.526,3.01,1.983,4.173,4.687,4.881
		c0.066,1.799,0.137,3.621,0.222,5.41c-0.948-0.38-1.796-1.075-1.996-2.341c-0.09-0.57-0.625-0.959-1.195-0.87
		c-0.57,0.09-0.959,0.625-0.87,1.195c0.335,2.129,1.89,3.646,4.179,4.256c0.029,0.496,0.056,0.996,0.089,1.479
		c0.037,0.552,0.496,0.975,1.042,0.975c0.023,0,0.047,0,0.071-0.002c0.576-0.039,1.011-0.537,0.972-1.113
		c-0.023-0.344-0.042-0.703-0.063-1.055c0.095,0.003,0.182,0.018,0.278,0.018c0.181,0,0.364-0.004,0.549-0.014
		c0.316-0.016,0.633-0.048,0.948-0.09c0.019,0.428,0.044,0.857,0.062,1.285c0.022,0.562,0.486,1.003,1.043,1.003
		c0.014,0,0.028,0,0.043,0c0.577-0.023,1.025-0.509,1.002-1.086c-0.022-0.563-0.056-1.129-0.082-1.694
		c1.87-0.662,3.324-1.86,3.422-3.522C28.143,25.224,26.325,23.986,24.107,23.228z M15.649,19.415
		c0.131-0.747,0.793-1.301,1.97-1.648c0.131-0.039,0.267-0.07,0.402-0.102c0.064,1.346,0.122,2.71,0.174,4.077
		C16.303,21.192,15.445,20.584,15.649,19.415z M20.102,17.44c0.489-0.001,0.974,0.029,1.439,0.086
		c0.154,1.699,0.296,3.401,0.422,5.106c-0.416-0.096-0.829-0.186-1.229-0.272c-0.153-0.033-0.282-0.064-0.429-0.096
		C20.245,20.651,20.179,19.032,20.102,17.44z M21.454,29.786c-0.161,0.007-0.465,0.013-0.841-0.008
		c-0.087-1.761-0.159-3.563-0.226-5.354c0.622,0.135,1.192,0.268,1.729,0.403c0.109,1.622,0.204,3.241,0.287,4.86
		C22.097,29.735,21.781,29.77,21.454,29.786z M24.465,29.067c-0.062-1.179-0.135-2.358-0.211-3.539
		c1.093,0.495,1.71,1.131,1.653,2.117C25.879,28.123,25.331,28.651,24.465,29.067z"/>
	<path fill="#939598" d="M20.411,4.567c-10.324,0-18.724,8.399-18.724,18.723c0,10.325,8.399,18.724,18.724,18.724
		s18.723-8.399,18.723-18.724C39.134,12.966,30.735,4.567,20.411,4.567z M20.411,37.442c-7.803,0-14.151-6.349-14.151-14.152
		c0-7.802,6.348-14.15,14.151-14.15c7.803,0,14.151,6.348,14.151,14.15C34.562,31.093,28.214,37.442,20.411,37.442z"/>
	<path fill="#939598" d="M54.052,46.068l-8.67-7.138c-0.935-0.77-2.182-0.886-3.219-0.426l-4.951-4.075l-2.62,3.183l4.999,4.114
		c-0.197,1.07,0.162,2.21,1.061,2.95l8.67,7.137c1.318,1.086,3.267,0.896,4.352-0.422l0.8-0.972
		C55.56,49.102,55.371,47.152,54.052,46.068z"/>
</g>
</svg>
